PathFileType	4	(X/Y/Z)	OpenSim_Sub02_EMGBaseline_Magnet.trc
DataRate	CameraRate	NumFrames	NumMarkers	Units	OrigDataRate	OrigDataStartFrame	OrigNumFrames
100	100	40	8	m	100	1	6727
Frame#	Time	torso_imu_offset_imu	pelvis_imu_offset_imu	tibia_r_imu_offset_imu	femur_r_imu_offset_imu	tibia_l_imu_offset_imu	femur_l_imu_offset_imu	toes_r_imu_offset_imu	toes_l_imu_offset_imu
				X1	Y1	Z1	X2	Y2	Z2	X3	Y3	Z3	X4	Y4	Z4	X5	Y5	Z5	X6	Y6	Z6	X7	Y7	Z7	X8		Y8	Z8	

1	0	-0.91399701	-0.23636146	0.11161087	-0.66625686	0.18705074	-0.63494659	-0.52539692	-0.54838439	-0.37147860	-0.74426280	-0.40583775	0.06505030	-0.64051408	0.54379264	-0.02589684	-0.66771328	0.44263982	0.27448788	-0.54386713	-0.44573830	-0.48354660	-0.64959333	-0.14845819	-0.50784255
2	0.01000000	-0.92056851	-0.23415981	0.10897996	-0.66850609	0.18779032	-0.62894392	-0.52186676	-0.54586067	-0.37579358	-0.74399798	-0.40552339	0.06710978	-0.64312905	0.54182673	-0.02543984	-0.66920902	0.44411485	0.27695728	-0.53809587	-0.44827361	-0.48086786	-0.64946488	-0.15061127	-0.51024753
3	0.02000000	-0.92441983	-0.23450005	0.10059990	-0.67421566	0.19170174	-0.62698711	-0.51820856	-0.54603469	-0.37843021	-0.74284952	-0.40834880	0.06440021	-0.64683270	0.54460745	-0.02474779	-0.67232637	0.44197252	0.28146939	-0.54016878	-0.44305163	-0.48293620	-0.64625528	-0.15318135	-0.50768309
4	0.03000000	-0.92044943	-0.23482201	0.09881942	-0.68123178	0.19286260	-0.62729928	-0.51812389	-0.54786234	-0.36903060	-0.74141956	-0.40169465	0.06765615	-0.64097064	0.54811658	-0.02949848	-0.67044748	0.44262870	0.27276315	-0.54317403	-0.44510662	-0.48310873	-0.64646489	-0.15310607	-0.50940300
5	0.04000000	-0.92118970	-0.23294981	0.09317492	-0.67788323	0.19727660	-0.61998202	-0.52117512	-0.54617809	-0.37329066	-0.74291713	-0.40290221	0.06158358	-0.63694186	0.55119697	-0.03099353	-0.66880396	0.44254267	0.28085938	-0.54049260	-0.44790901	-0.48035027	-0.64853093	-0.15111174	-0.51113228
6	0.05000000	-0.92192438	-0.23502051	0.08460316	-0.67431330	0.19616087	-0.61622302	-0.52019275	-0.54599143	-0.37782739	-0.74467594	-0.40396315	0.06464278	-0.64024167	0.54772441	-0.02728327	-0.66407204	0.44293212	0.28836833	-0.54296193	-0.44609023	-0.48596333	-0.64579641	-0.15339721	-0.50920800
7	0.06000000	-0.92483640	-0.23440752	0.08043596	-0.68040730	0.19016805	-0.61764139	-0.51542549	-0.54869694	-0.37421939	-0.74859325	-0.40482820	0.07150766	-0.64193432	0.54577700	-0.02814677	-0.66648475	0.44118572	0.28169867	-0.54128894	-0.44546407	-0.48293303	-0.64853281	-0.15174217	-0.50943646
8	0.07000000	-0.92481179	-0.23506341	0.07906526	-0.68245674	0.19883568	-0.61365204	-0.51801992	-0.54971817	-0.37163205	-0.74846718	-0.40686756	0.06586021	-0.63760043	0.54410119	-0.02684702	-0.67325570	0.44131325	0.28442160	-0.54014082	-0.44389510	-0.47802592	-0.64648509	-0.15003511	-0.51017217
9	0.08000000	-0.92227284	-0.23253409	0.07440124	-0.68223173	0.19847811	-0.61705044	-0.51674257	-0.54881727	-0.37225228	-0.74532876	-0.40269707	0.07148525	-0.63484072	0.54671010	-0.02392039	-0.66768483	0.44898842	0.28569480	-0.54012042	-0.44475540	-0.48350228	-0.64684345	-0.15247662	-0.50642111
10	0.09000000	-0.92723549	-0.23006424	0.06763415	-0.68880520	0.19792377	-0.61275506	-0.51358156	-0.55216252	-0.37177882	-0.74726701	-0.39961079	0.07315693	-0.63761118	0.55058317	-0.02526728	-0.66723535	0.44861583	0.28392082	-0.54131963	-0.44874506	-0.48316745	-0.64654262	-0.14991014	-0.50848451
11	0.10000000	-0.92805182	-0.23054170	0.06680564	-0.68693672	0.20126169	-0.60593908	-0.51517256	-0.55109489	-0.37332717	-0.74134020	-0.40468341	0.06688693	-0.63490592	0.55143399	-0.02338535	-0.66776888	0.44273613	0.28397367	-0.54215807	-0.44895636	-0.47930505	-0.64763171	-0.15224205	-0.51661761
12	0.11000000	-0.92668960	-0.23058296	0.06230090	-0.68301578	0.19987958	-0.60448001	-0.51062669	-0.55281366	-0.37392649	-0.74550006	-0.40374369	0.07262537	-0.63032100	0.55075137	-0.02425645	-0.66458926	0.44288463	0.28553626	-0.54349471	-0.44412151	-0.48419311	-0.64989267	-0.15097340	-0.50573344
13	0.12000000	-0.93239027	-0.22994047	0.05450674	-0.68933903	0.20310772	-0.60266600	-0.50948755	-0.55305073	-0.37684936	-0.74537869	-0.40319284	0.07446583	-0.63226169	0.54603729	-0.02207424	-0.66435233	0.44145684	0.28527753	-0.54335420	-0.44698234	-0.47860627	-0.64552960	-0.14739974	-0.50506449
14	0.13000000	-0.92758282	-0.23298790	0.04459451	-0.69241149	0.20323392	-0.60475673	-0.51202947	-0.55038366	-0.37691681	-0.74170431	-0.40685469	0.07527980	-0.63387472	0.54744822	-0.02254821	-0.66039353	0.44073365	0.28502463	-0.53641550	-0.45203050	-0.47937432	-0.64946141	-0.15115414	-0.51203334
15	0.14000000	-0.92298393	-0.23285319	0.04040209	-0.69329965	0.20590937	-0.59649883	-0.50822143	-0.55580801	-0.37369351	-0.74565733	-0.40368238	0.07775348	-0.63124904	0.55283769	-0.02228528	-0.65754418	0.44587819	0.28656959	-0.54133091	-0.45165253	-0.48774807	-0.64963149	-0.15151906	-0.50911826
16	0.15000000	-0.92869944	-0.23034458	0.03299400	-0.69381491	0.20701549	-0.59561157	-0.50906969	-0.56012418	-0.37373141	-0.74481236	-0.40248703	0.07281466	-0.62845162	0.55486265	-0.01736992	-0.66218663	0.45126110	0.28665388	-0.54487510	-0.44839086	-0.48092053	-0.64471412	-0.15317062	-0.50889437
17	0.16000000	-0.92709979	-0.22882649	0.02738927	-0.69800609	0.20647892	-0.60052240	-0.50829495	-0.55513628	-0.37612937	-0.73740411	-0.41147835	0.07852924	-0.62966472	0.55455546	-0.01962643	-0.66529566	0.44890754	0.28410075	-0.53734771	-0.44490701	-0.47849355	-0.64541454	-0.15251584	-0.51325427
18	0.17000000	-0.92885102	-0.23136296	0.03100215	-0.69940337	0.20776321	-0.59308933	-0.51173815	-0.55358945	-0.38008075	-0.73809745	-0.41003355	0.08072011	-0.62651111	0.55430852	-0.01386786	-0.65938821	0.44771837	0.28901112	-0.53574508	-0.44363997	-0.48404064	-0.64695034	-0.15403279	-0.51444129
19	0.18000000	-0.92973164	-0.23439180	0.02694562	-0.69590892	0.20169536	-0.59294829	-0.51061008	-0.55203993	-0.38156137	-0.74288446	-0.40145071	0.07918007	-0.62585672	0.55587810	-0.01615175	-0.65518998	0.44945786	0.29099366	-0.53723285	-0.44587561	-0.48002764	-0.64614847	-0.15466426	-0.51192720
20	0.19000000	-0.93037792	-0.23115521	0.02100600	-0.69576271	0.20826298	-0.60030225	-0.50609478	-0.54706010	-0.37873878	-0.74116832	-0.40393235	0.08296699	-0.63287863	0.55588845	-0.01918226	-0.65274375	0.44976408	0.29109100	-0.53798053	-0.45010371	-0.47893730	-0.64840002	-0.15007217	-0.51530415
21	0.20000000	-0.93347282	-0.22993497	0.01601589	-0.69364726	0.21128435	-0.59663033	-0.50847018	-0.55134667	-0.37686139	-0.74361239	-0.41427852	0.08251296	-0.63001152	0.55427748	-0.01685984	-0.65357527	0.45394020	0.28868861	-0.53939152	-0.44801644	-0.48099253	-0.64663644	-0.14940643	-0.50894844
22	0.21000000	-0.92542331	-0.23268178	0.01514983	-0.69740338	0.20404376	-0.59215518	-0.50738739	-0.55688134	-0.37330717	-0.73970273	-0.40999271	0.07529318	-0.62856931	0.55466925	-0.01668088	-0.65187141	0.45588149	0.28459196	-0.53928577	-0.44728554	-0.47938484	-0.64542536	-0.15007037	-0.50587883
23	0.22000000	-0.92498594	-0.23432728	0.00999155	-0.70186022	0.20727950	-0.59303744	-0.50915766	-0.55380258	-0.37566795	-0.74197317	-0.40598526	0.07972495	-0.63046201	0.55416388	-0.01251776	-0.65184135	0.45712509	0.28373032	-0.53857240	-0.44668151	-0.47838961	-0.64568625	-0.15467135	-0.51242672
24	0.23000000	-0.92794694	-0.23036921	0.00661859	-0.69864888	0.20655351	-0.59337329	-0.50917324	-0.55585071	-0.37521043	-0.74229635	-0.41589539	0.08765089	-0.63034465	0.54892785	-0.00966520	-0.65433644	0.45680053	0.28465201	-0.54205039	-0.45034728	-0.47769234	-0.64463338	-0.15400334	-0.51387090
25	0.24000000	-0.92862381	-0.23366224	0.00485234	-0.69562213	0.20649648	-0.59874815	-0.50737127	-0.55650394	-0.37495435	-0.73754344	-0.41398381	0.08429186	-0.63609228	0.55252396	-0.01126093	-0.64963713	0.45712978	0.28844838	-0.53998968	-0.45383436	-0.48199551	-0.64195974	-0.15262366	-0.50786544
26	0.25000000	-0.92982381	-0.22917770	0.00177253	-0.69150022	0.20772533	-0.59641336	-0.50946755	-0.55132403	-0.37674143	-0.73874437	-0.41303226	0.08522243	-0.63146875	0.55518444	-0.01444335	-0.64753665	0.45613737	0.29199183	-0.53895689	-0.45376642	-0.48318124	-0.64134890	-0.15276863	-0.51274285
27	0.26000000	-0.93094083	-0.22612171	0.00224902	-0.69301098	0.20918608	-0.59494353	-0.50865415	-0.55420818	-0.37683931	-0.73790006	-0.41337929	0.08458442	-0.62581262	0.55330729	-0.01385132	-0.64775812	0.46087639	0.28677615	-0.53883237	-0.45055110	-0.47950591	-0.64677114	-0.15329381	-0.51736665
28	0.27000000	-0.93183336	-0.23141770	-0.00521512	-0.69713161	0.20815598	-0.59711590	-0.50941248	-0.55285837	-0.38186221	-0.74035103	-0.41269860	0.08620589	-0.62767067	0.55238841	-0.01361689	-0.64943010	0.46842521	0.28557380	-0.54039374	-0.44568992	-0.47504573	-0.64421740	-0.15049888	-0.51306766
29	0.28000000	-0.93306624	-0.23022798	-0.00595543	-0.69686721	0.20449636	-0.59533035	-0.50667367	-0.54975859	-0.38077698	-0.73663971	-0.41559306	0.07895428	-0.63166447	0.55162470	-0.01475025	-0.64990723	0.46358066	0.28858103	-0.54101605	-0.44515559	-0.47953429	-0.64354812	-0.14879530	-0.51440807
30	0.29000000	-0.93352806	-0.23048437	-0.00263990	-0.69407879	0.20835331	-0.59263905	-0.50612909	-0.55209225	-0.38186739	-0.73078349	-0.41635253	0.07460224	-0.63321009	0.55614767	-0.01679810	-0.64516748	0.46469703	0.29008220	-0.53742279	-0.44510247	-0.47708622	-0.64215474	-0.15236280	-0.51252145
31	0.30000000	-0.93017326	-0.23064854	-0.01076786	-0.69408439	0.20812201	-0.59307306	-0.51135148	-0.55043464	-0.38454160	-0.73414633	-0.41630971	0.07991377	-0.63002116	0.55721939	-0.01485711	-0.64524673	0.46547246	0.29456028	-0.54027977	-0.44584927	-0.47689746	-0.64141004	-0.15160526	-0.51268576
32	0.31000000	-0.93132178	-0.22946072	-0.01205779	-0.69657579	0.20522091	-0.60162882	-0.50794461	-0.54868969	-0.38511247	-0.73769183	-0.41572152	0.08154393	-0.62847402	0.55472592	-0.01483660	-0.64320010	0.46787861	0.29449517	-0.54315613	-0.44972272	-0.48034470	-0.64633161	-0.15161716	-0.51391513
33	0.32000000	-0.93639888	-0.22772858	-0.01222960	-0.69090720	0.20567474	-0.59852804	-0.50517859	-0.55220047	-0.38052054	-0.73839746	-0.41222760	0.08359538	-0.63110812	0.55099519	-0.01615812	-0.64529611	0.47011146	0.29027755	-0.53950471	-0.45078700	-0.47788235	-0.64646376	-0.15232708	-0.51514973
34	0.33000000	-0.93279256	-0.22980047	-0.01052707	-0.68704202	0.20715962	-0.59678902	-0.50731918	-0.55107069	-0.37927426	-0.73886469	-0.41565372	0.07983168	-0.63444649	0.54918494	-0.01620228	-0.64445109	0.46454104	0.28813937	-0.54030977	-0.44854604	-0.47876152	-0.64818724	-0.14920089	-0.51529834
35	0.34000000	-0.93033188	-0.22901481	-0.01139551	-0.69016509	0.20589291	-0.60013040	-0.50701796	-0.55287251	-0.38250443	-0.73604603	-0.41658376	0.08102614	-0.63051193	0.54697180	-0.01369738	-0.63914140	0.46701389	0.29513983	-0.54022222	-0.45183773	-0.47715795	-0.64717242	-0.15605262	-0.51346928
36	0.35000000	-0.93114818	-0.23060442	-0.01621525	-0.69267861	0.20315563	-0.59433440	-0.50635699	-0.55283950	-0.38291626	-0.73516619	-0.41532711	0.07915751	-0.63046244	0.55214212	-0.01036631	-0.64337456	0.46818542	0.29384218	-0.53976737	-0.45208030	-0.47640719	-0.64224332	-0.15566700	-0.51459518
37	0.36000000	-0.92955028	-0.23040237	-0.01419585	-0.69116085	0.20368146	-0.60316200	-0.50982096	-0.55116974	-0.38493504	-0.73491033	-0.42046128	0.07847794	-0.62843083	0.55894235	-0.01484401	-0.64301399	0.46706819	0.29316146	-0.54194892	-0.44757420	-0.47536841	-0.64484656	-0.15063240	-0.51109664
38	0.37000000	-0.92975483	-0.22986508	-0.01168674	-0.68864335	0.20379653	-0.60520111	-0.50776655	-0.55183728	-0.38316084	-0.73586510	-0.41836350	0.07680911	-0.63248688	0.55788123	-0.01384479	-0.64019262	0.46404906	0.29803647	-0.53947519	-0.44854227	-0.48106780	-0.64552880	-0.15330305	-0.51187864
39	0.38000000	-0.93025992	-0.23273519	-0.01138446	-0.68759548	0.20256630	-0.60182592	-0.50675046	-0.55031800	-0.38250224	-0.73175252	-0.41585059	0.07000561	-0.63703267	0.55614947	-0.01397433	-0.63880666	0.46515658	0.29829090	-0.54261133	-0.44774221	-0.48241140	-0.64681822	-0.15287279	-0.51169980
40	0.39000000	-0.92681463	-0.23320729	-0.01507218	-0.68771334	0.20175729	-0.60080494	-0.50722372	-0.55035685	-0.38746008	-0.73662909	-0.41658478	0.07309932	-0.63316557	0.55123027	-0.01375389	-0.64085273	0.47006198	0.29929717	-0.54395574	-0.45046262	-0.47762350	-0.64729470	-0.15192317	-0.51190777
